<svg id="iconos" xmlns="http://www.w3.org/2000/svg" viewBox="0 0 24 24"><defs><style>.cls-1{fill:none;stroke:#dc0988;stroke-miterlimit:10;fill-rule:evenodd;}</style></defs><path class="cls-1" d="M10.37,12.05v6.07a.16.16,0,0,0,.16.15h2.25a.16.16,0,0,0,.16-.15V12h1.63a.16.16,0,0,0,.16-.14L14.89,10a.17.17,0,0,0-.16-.17H12.94V8.46a.56.56,0,0,1,.56-.56h1.26a.16.16,0,0,0,.15-.16V5.88a.15.15,0,0,0-.15-.15H12.63A2.26,2.26,0,0,0,10.37,8V9.78H9.24a.15.15,0,0,0-.15.15v1.86a.16.16,0,0,0,.15.16h1.13Z"/></svg>