<svg id="iconos" xmlns="http://www.w3.org/2000/svg" viewBox="0 0 24 24"><defs><style>.cls-1{fill:#dc0988;}</style></defs><path class="cls-1" d="M15.76,8.89a.68.68,0,1,1-.68-.68A.67.67,0,0,1,15.76,8.89Zm-.84,3a2.84,2.84,0,1,1-2.84-2.84A2.84,2.84,0,0,1,14.92,11.92Zm-1,0a1.82,1.82,0,1,0-1.82,1.82A1.83,1.83,0,0,0,13.9,11.92Zm3.93-2.28a3.47,3.47,0,0,0-3.47-3.47H9.64A3.47,3.47,0,0,0,6.17,9.64v4.72a3.47,3.47,0,0,0,3.47,3.47h4.72a3.47,3.47,0,0,0,3.47-3.47Zm-1.14,4.67a2.38,2.38,0,0,1-2.38,2.38H9.69a2.37,2.37,0,0,1-2.38-2.38V9.69A2.37,2.37,0,0,1,9.69,7.31h4.62a2.38,2.38,0,0,1,2.38,2.38Z"/></svg>