<?xml version="1.0" encoding="utf-8"?>
<!-- Generator: Adobe Illustrator 24.0.0, SVG Export Plug-In . SVG Version: 6.00 Build 0)  -->
<svg version="1.1" xmlns="http://www.w3.org/2000/svg" xmlns:xlink="http://www.w3.org/1999/xlink" x="0px" y="0px"
	 viewBox="0 0 25.68 27.95" style="enable-background:new 0 0 25.68 27.95;" xml:space="preserve">
<style type="text/css">
	.st0{fill:#FFFFFF;}
	.st1{fill-rule:evenodd;clip-rule:evenodd;fill:#FFFFFF;}
	.st2{fill:none;}
</style>
<g id="Capa_1">
	<g id="instagram">
		<path id="XMLID_2076_" class="st0" d="M13.13,4.23c3.16,0,3.53,0.01,4.78,0.07c1.15,0.05,1.78,0.25,2.2,0.41
			c0.55,0.21,0.95,0.47,1.36,0.89C21.88,6,22.14,6.4,22.35,6.95c0.16,0.42,0.35,1.04,0.41,2.2c0.06,1.25,0.07,1.62,0.07,4.78
			s-0.01,3.53-0.07,4.78c-0.05,1.15-0.25,1.78-0.41,2.2c-0.21,0.55-0.47,0.95-0.89,1.36c-0.41,0.41-0.81,0.67-1.36,0.89
			c-0.42,0.16-1.04,0.36-2.2,0.41c-1.25,0.06-1.62,0.07-4.78,0.07s-3.54-0.01-4.78-0.07c-1.15-0.05-1.78-0.25-2.2-0.41
			c-0.55-0.21-0.95-0.47-1.36-0.89c-0.41-0.41-0.67-0.81-0.89-1.36c-0.16-0.42-0.35-1.04-0.41-2.2c-0.06-1.25-0.07-1.62-0.07-4.78
			s0.01-3.54,0.07-4.78c0.05-1.15,0.25-1.78,0.41-2.2C4.11,6.4,4.37,6,4.78,5.59C5.2,5.17,5.59,4.92,6.15,4.7
			c0.42-0.16,1.04-0.36,2.2-0.41C9.59,4.24,9.97,4.23,13.13,4.23 M13.13,2.09c-3.21,0-3.62,0.01-4.88,0.07
			C6.99,2.22,6.13,2.42,5.37,2.71c-0.78,0.3-1.44,0.71-2.1,1.37C2.62,4.74,2.21,5.4,1.91,6.18C1.62,6.93,1.42,7.79,1.36,9.05
			c-0.06,1.26-0.07,1.67-0.07,4.88c0,3.21,0.01,3.62,0.07,4.88c0.06,1.26,0.26,2.12,0.55,2.87c0.3,0.78,0.71,1.44,1.37,2.1
			c0.66,0.66,1.32,1.06,2.1,1.37c0.75,0.29,1.61,0.49,2.87,0.55c1.26,0.06,1.67,0.07,4.88,0.07c3.21,0,3.62-0.01,4.88-0.07
			c1.26-0.06,2.12-0.26,2.87-0.55c0.78-0.3,1.44-0.71,2.1-1.37c0.66-0.66,1.06-1.32,1.37-2.1c0.29-0.75,0.49-1.61,0.55-2.87
			c0.06-1.26,0.07-1.67,0.07-4.88c0-3.21-0.01-3.62-0.07-4.88c-0.06-1.26-0.26-2.12-0.55-2.87c-0.3-0.78-0.71-1.44-1.37-2.1
			c-0.66-0.66-1.32-1.06-2.1-1.37c-0.75-0.29-1.61-0.49-2.87-0.55C16.74,2.11,16.34,2.09,13.13,2.09"/>
		<path id="XMLID_2073_" class="st0" d="M13.13,7.85c-3.36,0-6.08,2.72-6.08,6.08c0,3.36,2.72,6.08,6.08,6.08
			c3.36,0,6.08-2.72,6.08-6.08C19.2,10.57,16.48,7.85,13.13,7.85 M13.13,17.88c-2.18,0-3.95-1.77-3.95-3.95
			c0-2.18,1.77-3.95,3.95-3.95s3.95,1.77,3.95,3.95C17.07,16.11,15.31,17.88,13.13,17.88"/>
		<path id="XMLID_2025_" class="st0" d="M20.87,7.61c0,0.78-0.64,1.42-1.42,1.42c-0.78,0-1.42-0.64-1.42-1.42
			c0-0.78,0.64-1.42,1.42-1.42C20.23,6.19,20.87,6.83,20.87,7.61"/>
	</g>
</g>
<g id="lineas">
	<rect x="0.71" y="2.02" class="st2" width="24.25" height="24.26"/>
</g>
</svg>
