<?xml version="1.0" encoding="utf-8"?>
<!-- Generator: Adobe Illustrator 24.0.0, SVG Export Plug-In . SVG Version: 6.00 Build 0)  -->
<svg version="1.1" xmlns="http://www.w3.org/2000/svg" xmlns:xlink="http://www.w3.org/1999/xlink" x="0px" y="0px"
	 viewBox="0 0 25.68 27.95" style="enable-background:new 0 0 25.68 27.95;" xml:space="preserve">
<style type="text/css">
	.st0{fill:#FFFFFF;}
	.st1{fill-rule:evenodd;clip-rule:evenodd;fill:#FFFFFF;}
	.st2{fill:none;}
</style>
<g id="Capa_1">
	<path id="internet" class="st0" d="M13.06,1.95C6.8,1.95,1.72,7.02,1.72,13.28c0,6.26,5.07,11.33,11.33,11.33
		c6.26,0,11.33-5.07,11.33-11.33C24.39,7.02,19.32,1.95,13.06,1.95z M13.06,3.92c2.15,0,4.13,0.74,5.71,1.96
		c-1.14,1.47-2.71,2.63-4.71,3.47C13.1,7.6,12,5.88,10.76,4.22C11.5,4.03,12.26,3.92,13.06,3.92z M8.83,4.94
		c1.26,1.65,2.37,3.34,3.34,5.08c-2.3,0.68-5.04,1.02-8.2,1.04C4.63,8.39,6.43,6.16,8.83,4.94z M3.7,13.28
		c0-0.08,0.01-0.16,0.01-0.24c3.63-0.01,6.77-0.42,9.4-1.25c0.22,0.45,0.43,0.9,0.63,1.35c-3.19,1-5.82,3.04-7.87,6.12
		C4.51,17.64,3.7,15.56,3.7,13.28z M13.06,22.65c-2.17,0-4.16-0.75-5.75-1.99c1.86-2.92,4.23-4.82,7.18-5.69
		c0.88,2.29,1.52,4.64,1.93,7.05C15.37,22.42,14.24,22.65,13.06,22.65z M18.25,21.07c-0.41-2.22-1.02-4.39-1.81-6.51
		c1.77-0.25,3.72-0.19,5.85,0.19C21.88,17.37,20.38,19.64,18.25,21.07z M15.69,12.69c-0.23-0.53-0.47-1.06-0.72-1.59
		c2.18-0.94,3.93-2.23,5.24-3.85c1.27,1.51,2.07,3.42,2.19,5.51C19.96,12.36,17.73,12.34,15.69,12.69z"/>
</g>
<g id="lineas">
	<rect x="0.72" y="0.95" class="st2" width="24.25" height="24.26"/>
</g>
</svg>
