<svg id="iconos" xmlns="http://www.w3.org/2000/svg" viewBox="0 0 24 24"><defs><style>.cls-1{fill:#dc0988;}</style></defs><path class="cls-1" d="M12,18.52A6.35,6.35,0,0,1,9.47,18,6.54,6.54,0,0,1,6,14.53,6.56,6.56,0,0,1,6,9.46a6.58,6.58,0,0,1,1.4-2.07A6.51,6.51,0,0,1,9.47,6a6.56,6.56,0,0,1,5.07,0A6.59,6.59,0,0,1,18,9.46a6.56,6.56,0,0,1,0,5.07,6.51,6.51,0,0,1-1.4,2.08A6.58,6.58,0,0,1,14.54,18,6.37,6.37,0,0,1,12,18.52Zm0-1a8.61,8.61,0,0,0,.88-1.41,7.91,7.91,0,0,0,.59-1.55H10.53a9.12,9.12,0,0,0,.59,1.58A8.64,8.64,0,0,0,12,17.48Zm-1.33-.19A7.86,7.86,0,0,1,10,16a8.56,8.56,0,0,1-.49-1.48H7.14a5.47,5.47,0,0,0,1.46,1.8A4.82,4.82,0,0,0,10.67,17.29Zm2.66,0a4.82,4.82,0,0,0,2.07-1,5.47,5.47,0,0,0,1.46-1.8H14.53A10.94,10.94,0,0,1,14,16,9,9,0,0,1,13.33,17.29Zm-6.62-3.8H9.26q-.06-.37-.09-.75c0-.24,0-.49,0-.74s0-.5,0-.74.05-.5.09-.75H6.71a4.1,4.1,0,0,0-.15.73,4.77,4.77,0,0,0,0,.76,4.77,4.77,0,0,0,0,.76A4.1,4.1,0,0,0,6.71,13.49Zm3.58,0h3.42c0-.25.07-.5.09-.74s0-.49,0-.75,0-.51,0-.75-.05-.49-.09-.74H10.29c0,.25-.07.5-.09.74s0,.49,0,.75,0,.51,0,.75S10.25,13.24,10.29,13.49Zm4.45,0h2.55a4.1,4.1,0,0,0,.15-.73,4.77,4.77,0,0,0,0-.76,4.77,4.77,0,0,0,0-.76,4.1,4.1,0,0,0-.15-.73H14.74q.06.38.09.75c0,.24,0,.49,0,.74s0,.5,0,.74S14.78,13.24,14.74,13.49Zm-.21-4h2.33a5.46,5.46,0,0,0-1.45-1.8,5.07,5.07,0,0,0-2.08-1A8.57,8.57,0,0,1,14,8,9.79,9.79,0,0,1,14.53,9.48Zm-4,0h2.94a8.75,8.75,0,0,0-.6-1.59A7.91,7.91,0,0,0,12,6.52a7.91,7.91,0,0,0-.87,1.37A8.75,8.75,0,0,0,10.53,9.48Zm-3.39,0H9.47A9.79,9.79,0,0,1,10,8a8.57,8.57,0,0,1,.7-1.31,5.07,5.07,0,0,0-2.08,1A5.46,5.46,0,0,0,7.14,9.48Z"/></svg>