<svg id="iconos" xmlns="http://www.w3.org/2000/svg" viewBox="0 0 24 24"><defs><style>.cls-1{fill:#dc0988;}</style></defs><path class="cls-1" d="M12,18H7.41a1.64,1.64,0,0,1-1.8-1.82q0-3,0-6A1.63,1.63,0,0,1,7.39,8.4c.35,0,.7,0,1,0s.43-.05.38-.37a4.56,4.56,0,0,1,0-.64A1.36,1.36,0,0,1,10.21,6c1.2,0,2.4,0,3.6,0a1.36,1.36,0,0,1,1.38,1.41c0,.31-.14.73.06.92s.64,0,1,.06h.52a1.61,1.61,0,0,1,1.65,1.65q0,3.15,0,6.32A1.61,1.61,0,0,1,16.69,18Zm0-1.2h4.69c.46,0,.56-.1.56-.57,0-.77,0-1.55,0-2.32,0-.24-.06-.32-.31-.32-1,0-2,0-3,0-.26,0-.34.06-.34.33,0,.6-.3.87-.89.88H11.37c-.66,0-.94-.26-.95-.91,0-.26-.09-.3-.32-.3-1,0-2,0-3,0-.28,0-.32.1-.32.34,0,.77,0,1.53,0,2.29,0,.48.1.58.59.58Zm0-4.4h4.92c.27,0,.34-.07.34-.33,0-.65,0-1.31,0-2,0-.34-.13-.52-.49-.52H7.28c-.35,0-.51.16-.5.51,0,.65,0,1.3,0,2,0,.29.09.34.36.34Zm0-4h1.24c.8,0,.79,0,.78-.8,0-.32-.12-.41-.43-.41-.9,0-1.81,0-2.72,0S10,7,10,8.13c0,.25.1.28.3.27Z"/></svg>