<?xml version="1.0" encoding="utf-8"?>
<!-- Generator: Adobe Illustrator 24.0.0, SVG Export Plug-In . SVG Version: 6.00 Build 0)  -->
<svg version="1.1" id="Capa_1" xmlns="http://www.w3.org/2000/svg" xmlns:xlink="http://www.w3.org/1999/xlink" x="0px" y="0px"
	 viewBox="0 0 25.7 28" style="enable-background:new 0 0 25.7 28;" xml:space="preserve">
<style type="text/css">
	.st0{fill:#FFFFFF;}
	.st1{fill:#AAC6F9;}
	.st2{fill:#72ACF2;}
	.st3{display:none;fill:#FFAC1E;}
	.st4{display:none;fill:#0B4291;}
	.st5{display:none;fill:#EF9A1D;}
</style>
<g id="XMLID_4_">
	<g id="XMLID_5_">
		<g id="XMLID_107_">
			<g id="XMLID_380_">
				<rect id="XMLID_111_" x="3.8" y="3" class="st0" width="16.2" height="21.2"/>
				<polygon id="XMLID_383_" class="st1" points="21,25.2 4.7,25.2 3.8,24.2 20.1,24.2 				"/>
				<polygon id="XMLID_382_" class="st2" points="21,4 21,25.2 20.1,24.2 20.1,3 				"/>
			</g>
			<path id="XMLID_110_" class="st3" d="M20.1,15.6h-6.2c-0.8,0-1.5-0.7-1.5-1.5v0c0-0.8,0.7-1.5,1.5-1.5h6.2V15.6z"/>
			<path id="XMLID_109_" class="st4" d="M14.9,14.4c0,0.4-0.3,0.7-0.7,0.7c-0.4,0-0.7-0.3-0.7-0.7c0-0.4,0.3-0.7,0.7-0.7
				C14.6,13.6,14.9,13.9,14.9,14.4z"/>
			<polygon id="XMLID_314_" class="st5" points="21,13.2 21,16.1 20.1,15.6 20.1,12.7 			"/>
			<rect id="XMLID_108_" x="3.8" y="3" class="st3" width="1.1" height="21.2"/>
			<polygon id="XMLID_379_" class="st5" points="5.5,25.2 4.7,25.2 3.8,24.2 4.9,24.2 			"/>
		</g>
		<g id="XMLID_6_">
			<path id="XMLID_11_" class="st2" d="M8.9,24.7H6c-0.1,0-0.1,0-0.1,0c0,0,0,0,0.1,0L8.9,24.7C9,24.6,9,24.6,8.9,24.7
				C9,24.7,9,24.7,8.9,24.7z"/>
		</g>
	</g>
</g>
</svg>
