<?xml version="1.0" encoding="utf-8"?>
<!-- Generator: Adobe Illustrator 24.0.0, SVG Export Plug-In . SVG Version: 6.00 Build 0)  -->
<svg version="1.1" xmlns="http://www.w3.org/2000/svg" xmlns:xlink="http://www.w3.org/1999/xlink" x="0px" y="0px"
	 viewBox="0 0 25.68 27.95" style="enable-background:new 0 0 25.68 27.95;" xml:space="preserve">
<style type="text/css">
	.st0{fill:#FFFFFF;}
	.st1{fill-rule:evenodd;clip-rule:evenodd;fill:#FFFFFF;}
	.st2{fill:none;}
</style>
<g id="Capa_1">
	<g id="whatsapp">
		<path class="st0" d="M0.71,25.51l1.72-6.42c-0.97-1.76-1.49-3.73-1.49-5.73C0.95,6.82,6.27,1.5,12.81,1.5
			c6.54,0,11.86,5.32,11.86,11.86c0,6.54-5.32,11.86-11.86,11.86c-1.96,0-3.9-0.5-5.64-1.44L0.71,25.51z M7.49,21.38l0.41,0.24
			c1.49,0.89,3.19,1.36,4.91,1.36c5.3,0,9.62-4.31,9.62-9.62c0-5.3-4.31-9.62-9.62-9.62c-5.3,0-9.62,4.31-9.62,9.62
			c0,1.75,0.49,3.48,1.41,4.99l0.25,0.41l-0.96,3.59L7.49,21.38z"/>
		<path class="st1" d="M17.22,15.01c-0.49-0.29-1.12-0.62-1.7-0.38c-0.44,0.18-0.72,0.87-1.01,1.22c-0.15,0.18-0.32,0.21-0.55,0.12
			c-1.66-0.66-2.92-1.77-3.84-3.29c-0.15-0.24-0.13-0.42,0.06-0.64c0.28-0.32,0.62-0.69,0.7-1.13c0.07-0.44-0.13-0.95-0.31-1.34
			c-0.23-0.5-0.49-1.21-0.99-1.49C9.12,7.82,8.52,7.96,8.11,8.3C7.4,8.87,7.06,9.77,7.07,10.66c0,0.25,0.03,0.51,0.09,0.75
			c0.14,0.59,0.41,1.14,0.72,1.66c0.23,0.39,0.48,0.78,0.75,1.14c0.89,1.2,1.99,2.25,3.26,3.03c0.64,0.39,1.32,0.73,2.04,0.97
			c0.8,0.26,1.51,0.54,2.37,0.37c0.9-0.17,1.79-0.73,2.15-1.6c0.11-0.26,0.16-0.54,0.1-0.82C18.43,15.62,17.67,15.28,17.22,15.01z"
			/>
	</g>
</g>
<g id="lineas">
	<rect x="0.71" y="1.5" class="st2" width="24.25" height="24.26"/>
</g>
</svg>
